# xmcd CD database file
#
# Track frame offsets:
#	150
#	27500
#	50450
#	73025
#	98900
#	133775
#	149000
#	171875
#	184400
#
# Disc length: 2846 seconds
#
# Revision: 0
# Processed by: cddbd v1.4PL0 Copyright (c) Steve Scherf et al.
# Submitted via: CDex 1.51
#
DISCID=8c0b1c09
DTITLE=Andrew Firth - Let There Be Firth
DYEAR=1993
DGENRE=Jazz
TTITLE0=There'll Never Be Another You
TTITLE1=Autumn Leaves
TTITLE2=Anthropology
TTITLE3=Broken Promises
TTITLE4=The Nearness Of You
TTITLE5=Maria Elena
TTITLE6=Another Samba
TTITLE7=My Funny Valentine
TTITLE8=Honeysuckle Rose
EXTD=YEAR: 1993
EXTT0=
EXTT1=
EXTT2=
EXTT3=
EXTT4=
EXTT5=
EXTT6=
EXTT7=
EXTT8=
PLAYORDER=
